<svg width="512" height="512" viewBox="0 0 512 512" fill="none" xmlns="http://www.w3.org/2000/svg">
    <rect x="73" y="56" width="300" height="400" rx="4" fill="#D64320"/>
    <rect x="389" y="56" width="50" height="341" rx="4" fill="#D64320"/>
    <path d="M417.593 448.657C416.13 451.646 411.87 451.646 410.407 448.657L395.167 417.508C393.866 414.851 395.801 411.75 398.76 411.75H429.24C432.199 411.75 434.134 414.851 432.833 417.508L417.593 448.657Z" fill="#D64320"/>
    <path d="M232.474 357.419H237.96L237.96 257.59H232.474V221.209H282.838C291.982 221.209 299.114 224.98 304.234 232.522C309.355 240.065 311.915 250.861 311.915 264.911C311.915 273.637 310.891 281.032 308.843 287.095C306.795 293.011 304.381 297.522 301.601 300.628C298.894 303.586 296.261 305.582 293.701 306.617V308.836C298.894 309.871 303.576 313.199 307.746 318.819C311.915 324.439 314 334.495 314 348.989C314 364.518 311.111 375.906 305.332 383.153C299.553 390.251 292.055 393.801 282.838 393.801H232.474V357.419ZM274.609 293.972C276.73 293.972 278.303 292.863 279.327 290.645C280.424 288.278 280.973 284.655 280.973 279.775V271.788C280.973 266.908 280.424 263.358 279.327 261.14C278.303 258.774 276.73 257.59 274.609 257.59H268.683V293.972H274.609ZM275.377 357.419C277.498 357.419 279.071 356.31 280.095 354.091C281.192 351.725 281.741 348.102 281.741 343.221V333.46C281.741 328.58 281.192 325.03 280.095 322.812C279.071 320.445 277.498 319.262 275.377 319.262H268.683V357.419H275.377Z" fill="white"/>
    <path d="M242 182.077L218.441 182.077V161.424L209.676 161.424L209.676 280.576H219.263V324H161.737L161.737 280.576H171.324L171.324 161.424H162.559V182.077H139L139 118L242 118V182.077Z" fill="white"/>
</svg>
