<svg width="327" height="99" viewBox="0 0 327 99" fill="none" xmlns="http://www.w3.org/2000/svg">
    <path d="M21 3H35C57.0914 3 75 20.9086 75 43C75 65.0914 57.0914 83 35 83H21V3Z"
        fill="url(#paint0_linear_2_145)" />
    <path d="M39 31H45C51.6274 31 57 36.3726 57 43C57 49.6274 51.6274 55 45 55H39V31Z"
        fill="white" />
    <g filter="url(#filter0_f_2_145)">
        <rect x="16" y="16" width="15" height="49" fill="#7534FF" />
    </g>
    <rect y="3" width="23" height="80" fill="url(#paint1_linear_2_145)" />
    <path
        d="M95.536 74V42.5H100.261V74H95.536ZM95.536 35.381V29.9H100.261V35.381H95.536ZM121.098 41.87C122.484 41.87 124.836 42.122 128.154 42.626L129.666 42.815L129.477 46.658C126.117 46.28 123.639 46.091 122.043 46.091C118.473 46.091 116.037 46.952 114.735 48.674C113.475 50.354 112.845 53.504 112.845 58.124C112.845 62.702 113.433 65.894 114.609 67.7C115.827 69.506 118.326 70.409 122.106 70.409L129.54 69.842L129.729 73.748C125.823 74.336 122.904 74.63 120.972 74.63C116.058 74.63 112.656 73.37 110.766 70.85C108.918 68.33 107.994 64.088 107.994 58.124C107.994 52.118 109.002 47.918 111.018 45.524C113.034 43.088 116.394 41.87 121.098 41.87ZM153.074 46.595H143.057V61.652C143.057 65.264 143.309 67.637 143.813 68.771C144.359 69.905 145.619 70.472 147.593 70.472L153.2 70.094L153.515 74C150.701 74.462 148.559 74.693 147.089 74.693C143.813 74.693 141.545 73.895 140.285 72.299C139.025 70.703 138.395 67.658 138.395 63.164V46.595H133.922V42.5H138.395V32.861H143.057V42.5H153.074V46.595ZM171.696 33.995C165.396 33.995 162.246 36.368 162.246 41.114C162.246 43.76 162.96 45.587 164.388 46.595C165.858 47.561 168.798 48.548 173.208 49.556C177.66 50.522 180.81 51.803 182.658 53.399C184.506 54.953 185.43 57.536 185.43 61.148C185.43 70.094 180.789 74.567 171.507 74.567C168.441 74.567 164.598 74.21 159.978 73.496L157.71 73.181L158.214 69.149C163.926 69.905 168.273 70.283 171.255 70.283C177.471 70.283 180.579 67.364 180.579 61.526C180.579 59.174 179.886 57.494 178.5 56.486C177.156 55.436 174.615 54.554 170.877 53.84C165.963 52.79 162.477 51.446 160.419 49.808C158.361 48.128 157.332 45.335 157.332 41.429C157.332 33.617 162.015 29.711 171.381 29.711C174.447 29.711 178.122 30.026 182.406 30.656L184.548 30.971L184.107 35.066C178.269 34.352 174.132 33.995 171.696 33.995ZM214.409 70.094L216.236 69.905L216.362 73.622C211.574 74.294 207.479 74.63 204.077 74.63C199.541 74.63 196.328 73.328 194.438 70.724C192.548 68.078 191.603 63.983 191.603 58.439C191.603 47.393 195.992 41.87 204.77 41.87C209.012 41.87 212.183 43.067 214.283 45.461C216.383 47.813 217.433 51.53 217.433 56.612L217.181 60.203H196.391C196.391 63.689 197.021 66.272 198.281 67.952C199.541 69.632 201.725 70.472 204.833 70.472C207.983 70.472 211.175 70.346 214.409 70.094ZM212.708 56.423C212.708 52.559 212.078 49.829 210.818 48.233C209.6 46.637 207.584 45.839 204.77 45.839C201.998 45.839 199.898 46.679 198.47 48.359C197.084 50.039 196.37 52.727 196.328 56.423H212.708ZM240.929 46.595H230.912V61.652C230.912 65.264 231.164 67.637 231.668 68.771C232.214 69.905 233.474 70.472 235.448 70.472L241.055 70.094L241.37 74C238.556 74.462 236.414 74.693 234.944 74.693C231.668 74.693 229.4 73.895 228.14 72.299C226.88 70.703 226.25 67.658 226.25 63.164V46.595H221.777V42.5H226.25V32.861H230.912V42.5H240.929V46.595ZM243.675 74L255.645 30.404H266.229L278.199 74H273.411L270.261 62.786H251.613L248.463 74H243.675ZM259.299 34.562L252.684 58.439H269.19L262.575 34.562H259.299ZM284.228 87.986V42.5H288.89V44.768C292.082 42.836 295.232 41.87 298.34 41.87C302.33 41.87 305.228 43.151 307.034 45.713C308.84 48.233 309.743 52.412 309.743 58.25C309.743 64.088 308.672 68.288 306.53 70.85C304.43 73.37 300.923 74.63 296.009 74.63C293.447 74.63 291.095 74.399 288.953 73.937V87.986H284.228ZM297.647 46.091C296.387 46.091 295.022 46.301 293.552 46.721C292.124 47.141 290.99 47.561 290.15 47.981L288.953 48.611V69.842C291.935 70.304 294.203 70.535 295.757 70.535C299.159 70.535 301.532 69.569 302.876 67.637C304.262 65.705 304.955 62.555 304.955 58.187C304.955 53.819 304.325 50.711 303.065 48.863C301.847 47.015 300.041 46.091 297.647 46.091ZM317.451 74V42.5H322.176V74H317.451ZM317.451 35.381V29.9H322.176V35.381H317.451Z"
        fill="#0A0047" />
    <defs>
        <filter id="filter0_f_2_145" x="0" y="0" width="47" height="81" filterUnits="userSpaceOnUse"
            color-interpolation-filters="sRGB">
            <feFlood flood-opacity="0" result="BackgroundImageFix" />
            <feBlend mode="normal" in="SourceGraphic" in2="BackgroundImageFix" result="shape" />
            <feGaussianBlur stdDeviation="8" result="effect1_foregroundBlur_2_145" />
        </filter>
        <linearGradient id="paint0_linear_2_145" x1="4" y1="43" x2="72.4944" y2="91.9662"
            gradientUnits="userSpaceOnUse">
            <stop stop-color="#7534FF" />
            <stop offset="1" stop-color="#F7A7A1" />
        </linearGradient>
        <linearGradient id="paint1_linear_2_145" x1="0" y1="43" x2="37" y2="59.5"
            gradientUnits="userSpaceOnUse">
            <stop stop-color="#F6A2A9" />
            <stop offset="1" stop-color="#BD52FF" />
        </linearGradient>
    </defs>
</svg>
